<?xml version="1.0" encoding="UTF-8"?>
<svg width="700pt" height="700pt" version="1.1" viewBox="0 0 700 550" xmlns="http://www.w3.org/2000/svg" xmlns:xlink="http://www.w3.org/1999/xlink">
 <g>
  <path d="m315 431.67c50.016-0.023438 96.809-24.707 125.07-65.977 1.793-2.5508 2.4922-5.7148 1.9375-8.7852-0.55469-3.0664-2.3164-5.7891-4.8906-7.5508-2.5703-1.7617-5.7422-2.4219-8.8047-1.8281s-5.7617 2.3867-7.4922 4.9805c-20.785 30.352-53.594 50.328-90.102 54.852-36.508 4.5234-73.199-6.8359-100.77-31.195-27.566-24.359-43.352-59.379-43.352-96.164s15.785-71.805 43.352-96.164c27.566-24.359 64.258-35.719 100.77-31.195 36.508 4.5234 69.316 24.5 90.102 54.852 3.6719 5.2266 10.867 6.5234 16.137 2.9141s6.6562-10.785 3.1133-16.098c-30.031-43.855-80.828-68.789-133.89-65.723-53.066 3.0664-100.65 33.691-125.43 80.715-24.777 47.023-23.133 103.59 4.3398 149.09 27.473 45.504 76.758 73.305 129.91 73.281z"/>
  <path d="m444.38 268.33h-152.71v23.336h152.71v34.883l80.617-46.551-80.617-46.551z"/>
 </g>
</svg>
